<svg xmlns="http://www.w3.org/2000/svg" viewBox="0 0 92.61 66.13"><defs><style>.cls-1{fill:#333a8f;}.cls-2{fill:#8aafde;}</style></defs><title>Fichier 6</title><g id="Calque_2" data-name="Calque 2"><g id="Calque_1-2" data-name="Calque 1"><path class="cls-1" d="M27.5,23.1a11.81,11.81,0,0,0,5.24-4.16,11.4,11.4,0,0,0,1.83-6.56q0-6-4.37-9.21T17.94,0H0V48.73H18.56q8.48,0,13.19-3.46t4.72-10a12.27,12.27,0,0,0-2.33-7.62A13.4,13.4,0,0,0,27.5,23.1ZM10,8.77h7.53a8.17,8.17,0,0,1,5.07,1.38,4.72,4.72,0,0,1,1.8,4,4.72,4.72,0,0,1-1.8,4,8.17,8.17,0,0,1-5.07,1.38H10ZM24.19,38.32a9.63,9.63,0,0,1-6,1.64H10V27.29H18.2a9.77,9.77,0,0,1,6,1.61,5.51,5.51,0,0,1,2.13,4.69A5.61,5.61,0,0,1,24.19,38.32Z"/><rect class="cls-1" x="43.18" width="10.02" height="48.73"/><polygon class="cls-1" points="71.72 39.96 71.72 0 61.71 0 61.71 48.73 92.61 48.73 92.61 39.96 71.72 39.96"/><path class="cls-2" d="M5.4,53.54c2.58,0,4.18,1.19,4.18,3.15a2.75,2.75,0,0,1-2.19,2.8,3.06,3.06,0,0,1,2.67,3.19c0,2.15-1.73,3.45-4.53,3.45H0V53.54ZM2.1,58.75H5.3c1.33,0,2.13-.62,2.13-1.69s-.8-1.63-2.13-1.63H2.1Zm0,5.49H5.3c1.63,0,2.61-.65,2.61-1.83s-1-1.78-2.61-1.78H2.1Z"/><path class="cls-2" d="M14.65,55.45v3.39h6.08v1.91H14.65v3.47h7v1.91h-9.1V53.54h8.89v1.91Z"/><path class="cls-2" d="M28.8,66.13V53.54h2.1V66.13Z"/><path class="cls-2" d="M42.9,66.13l-6.63-9v9h-2.1V53.54h2.06l6.67,9.05V53.54H45V66.13Z"/><path class="cls-2" d="M60.32,64.21v1.92H52.84V53.54h2.1V64.21Z"/><path class="cls-2" d="M62.34,66.13V53.54h2.09V66.13Z"/><path class="cls-2" d="M76.43,66.13l-6.63-9v9H67.71V53.54h2.06l6.66,9.05V53.54h2.06V66.13Z"/><path class="cls-2" d="M86,60.57l-2.12,2.36v3.2H81.79V53.54h2.09v6.51l5.94-6.51h2.47l-4.82,5.38,5.14,7.21H90.09Z"/></g></g></svg>