<?xml version="1.0" encoding="UTF-8" standalone="no"?><!DOCTYPE svg PUBLIC "-//W3C//DTD SVG 1.1//EN" "http://www.w3.org/Graphics/SVG/1.1/DTD/svg11.dtd"><svg width="100%" height="100%" viewBox="0 0 250 53" version="1.1" xmlns="http://www.w3.org/2000/svg" xmlns:xlink="http://www.w3.org/1999/xlink" xml:space="preserve" xmlns:serif="http://www.serif.com/" style="fill-rule:evenodd;clip-rule:evenodd;stroke-linejoin:round;stroke-miterlimit:2;"><g><g><path d="M27.827,41.248c-1.631,1.173 -3.929,1.759 -6.891,1.759l-9.413,-0l-0,-13.576l9.413,-0c2.962,-0 5.26,0.574 6.891,1.723c1.631,1.148 2.448,2.825 2.448,5.029c0,2.206 -0.817,3.893 -2.448,5.065m-16.304,-31.659l8.66,-0c2.51,-0 4.457,0.492 5.837,1.478c1.38,0.987 2.071,2.409 2.071,4.265c-0,1.857 -0.691,3.279 -2.071,4.264c-1.38,0.986 -3.327,1.48 -5.837,1.48l-8.66,0l-0,-11.487Zm20.107,15.351c2.611,-1.045 4.62,-2.53 6.025,-4.456c1.406,-1.926 2.109,-4.27 2.109,-7.032c-0,-4.317 -1.676,-7.606 -5.027,-9.868c-3.351,-2.263 -8.052,-3.395 -14.102,-3.395l-20.635,0l-0,52.217l21.351,0c6.501,0 11.559,-1.236 15.175,-3.707c3.615,-2.472 5.422,-6.052 5.422,-10.74c0,-3.249 -0.891,-5.971 -2.673,-8.163c-1.783,-2.193 -4.331,-3.812 -7.645,-4.856" style="fill:#323a8f;fill-rule:nonzero;"/><rect x="49.667" y="0.19" width="11.524" height="52.216" style="fill:#323a8f;"/><path d="M82.504,43.006l-0,-42.816l-11.524,-0l0,52.216l35.548,-0l0,-9.4l-24.024,0Z" style="fill:#323a8f;fill-rule:nonzero;"/></g><g transform="matrix(0.24,0,0,0.24,-959.959,-81.5065)"><text x="4469px" y="432.994px" style="font-family:'KumbhSans-Bold', 'Kumbh Sans';font-weight:700;font-size:125px;fill:#ffcc80;">POUR</text><text x="4469px" y="557.994px" style="font-family:'KumbhSans-Bold', 'Kumbh Sans';font-weight:700;font-size:125px;fill:#ffcc80;">LE<tspan x="4610.48px " y="557.994px ">S</tspan> PROS</text></g></g></svg>