<?xml version="1.0" encoding="UTF-8" standalone="no"?><!DOCTYPE svg PUBLIC "-//W3C//DTD SVG 1.1//EN" "http://www.w3.org/Graphics/SVG/1.1/DTD/svg11.dtd"><svg width="100%" height="100%" viewBox="0 0 82 67" version="1.1" xmlns="http://www.w3.org/2000/svg" xmlns:xlink="http://www.w3.org/1999/xlink" xml:space="preserve" xmlns:serif="http://www.serif.com/" style="fill-rule:evenodd;clip-rule:evenodd;stroke-linejoin:round;stroke-miterlimit:2;"><g><path d="M53.346,3.895c-2.125,-1.487 -4.529,-2.59 -7.145,-3.227c-0.969,-0.239 -1.965,-0.412 -2.975,-0.505c-0.743,-0.08 -1.487,-0.106 -2.244,-0.106l0,-0.053c-0.744,-0.014 -1.488,0.013 -2.231,0.093c-1.009,0.093 -2.006,0.265 -2.988,0.505c-0.995,0.244 -1.959,0.557 -2.89,0.932c-1.147,0.463 -2.673,1.195 -4.335,2.361c3.707,0.38 7.804,0.628 12.237,0.634c4.564,0.006 8.774,-0.245 12.571,-0.634" style="fill:#323a8f;fill-rule:nonzero;"/><path d="M40.514,9.046c-6.025,-0.018 -11.537,-0.421 -16.438,-1.008c-3.452,4.196 -5.511,9.654 -5.551,15.47c-0.026,5.18 -0.065,10.373 -0.106,15.552c-0.04,7.357 -0.093,14.715 -0.146,22.072c-0.013,2.722 2.098,4.927 4.701,4.927l18.009,0l18.021,0.066c2.602,0 4.714,-2.205 4.7,-4.926c-0.052,-7.371 -0.105,-14.755 -0.145,-22.139c-0.04,-5.165 -0.08,-10.319 -0.107,-15.485c-0.036,-7.06 -3.726,-12.252 -5.617,-15.537c-5.131,0.615 -10.944,1.028 -17.321,1.008Z" style="fill:url(#_Linear1);fill-rule:nonzero;"/><path d="M0.132,63.238c-0.762,2.05 1.96,3.605 3.455,1.979c3.86,-4.196 9.096,-8.555 12.72,-8.391l-0,-17.762c-0,0 -10.392,8.609 -16.175,24.174" style="fill:#323a8f;fill-rule:nonzero;"/><path d="M81.665,63.238c-5.783,-15.565 -15.85,-24.174 -15.85,-24.174l0,17.762c3.625,-0.164 8.535,4.195 12.395,8.391c1.495,1.626 4.217,0.071 3.455,-1.979" style="fill:#323a8f;fill-rule:nonzero;"/><path d="M40.815,27.315c-2.032,0 -3.719,-1.315 -3.891,-2.988l7.782,0c-0.173,1.673 -1.859,2.988 -3.891,2.988m15.179,-14.874l-29.601,0c-1.993,0 -3.599,1.554 -3.599,3.466l0,16.72c0,1.912 1.606,3.466 3.599,3.466l29.601,0c1.992,0 3.599,-1.554 3.599,-3.466l0,-16.72c0,-1.912 -1.607,-3.466 -3.599,-3.466" style="fill:#a0d4d0;fill-rule:nonzero;"/><path d="M26.395,36.089l-0.762,0c-1.988,0 -3.6,-1.552 -3.6,-3.465l-0,-16.715c-0,-1.914 1.612,-3.466 3.6,-3.466l0.762,0c-1.991,0 -3.604,1.552 -3.604,3.466l-0,16.715c-0,1.913 1.613,3.465 3.604,3.465" style="fill:#fff;fill-rule:nonzero;"/><g opacity="0.9"><g><clipPath id="_clip2"><path d="M40.76,27.311c-2.039,0 -3.73,-1.315 -3.903,-2.988l7.805,0c-0.173,1.673 -1.865,2.988 -3.902,2.988Zm15.224,-14.874l-29.69,0c-1.998,0 -3.609,1.554 -3.609,3.466l-0,16.72c-0,1.912 1.611,3.466 3.609,3.466l29.69,0c1.998,0 3.61,-1.554 3.61,-3.466l-0,-16.72c-0,-1.912 -1.612,-3.466 -3.61,-3.466Z" clip-rule="nonzero"/></clipPath><g clip-path="url(#_clip2)"><g opacity="0.51"><rect x="22.031" y="12.441" width="37.671" height="4.899" style="fill:#a0d4d0;"/><rect x="22.031" y="16.203" width="37.671" height="4.899" style="fill:#84b4c8;"/><rect x="22.031" y="19.965" width="37.671" height="4.899" style="fill:#6995bd;"/><rect x="22.031" y="23.727" width="37.671" height="4.899" style="fill:#5375ae;"/><rect x="22.031" y="27.488" width="37.671" height="4.899" style="fill:#40569f;"/><rect x="22.031" y="31.25" width="37.671" height="4.899" style="fill:#323a8f;"/></g></g></g></g><path d="M24.226,65.05c-0.004,0.362 0.063,0.709 0.186,1.033l16.573,-0l16.574,0.047c0.126,-0.324 0.193,-0.675 0.189,-1.039c-0.058,-7.23 -0.112,-14.461 -0.169,-21.693l-33.188,-0c-0.054,7.216 -0.111,14.433 -0.165,21.652" style="fill:#89afdd;fill-rule:nonzero;"/><path d="M45.225,5.963c0,0.246 -0.021,0.488 -0.06,0.722c-0.344,2.114 -2.179,3.727 -4.39,3.727c-2.211,-0 -4.045,-1.613 -4.39,-3.727c-0.039,-0.234 -0.059,-0.476 -0.059,-0.722c0,-2.456 1.992,-4.448 4.449,-4.448c2.458,-0 4.45,1.992 4.45,4.448" style="fill:#89afdd;fill-rule:nonzero;"/><path d="M36.924,27.927c0.173,1.673 1.859,2.988 3.892,2.988c2.031,0 3.717,-1.315 3.89,-2.988l-7.782,0Z" style="fill:url(#_Linear3);fill-rule:nonzero;"/><path d="M29.964,24.681c0.275,-0.177 0.967,-0.571 1.935,-0.582c1.015,-0.011 1.743,0.406 2.016,0.582l-0,-4.237c-0,-1.205 -0.883,-2.215 -1.985,-2.211l-0.049,0c-1.072,0.023 -1.917,1.011 -1.917,2.183l-0,4.265Z" style="fill:#323a8f;fill-rule:nonzero;"/><path d="M44.643,27.454l-7.655,0c0.365,-1.497 1.941,-2.622 3.826,-2.622c1.888,0 3.464,1.125 3.829,2.622" style="fill:#fccc81;fill-rule:nonzero;"/><path d="M44.706,27.927c-0.173,1.673 -1.859,2.988 -3.891,2.988c-2.032,0 -3.719,-1.315 -3.891,-2.988l7.782,0Z" style="fill:#fccc81;fill-rule:nonzero;"/><path d="M47.715,24.681c0.275,-0.177 0.967,-0.571 1.935,-0.582c1.015,-0.011 1.743,0.406 2.016,0.582l0,-4.237c0,-1.205 -0.883,-2.215 -1.985,-2.211l-0.049,0c-1.072,0.023 -1.917,1.011 -1.917,2.183l0,4.265Z" style="fill:#323a8f;fill-rule:nonzero;"/><path d="M43.89,5.963c0,0.172 -0.014,0.342 -0.042,0.506c-0.241,1.48 -1.525,2.609 -3.073,2.609c-1.548,-0 -2.831,-1.129 -3.072,-2.609c-0.028,-0.164 -0.042,-0.334 -0.042,-0.506c0,-1.719 1.394,-3.114 3.114,-3.114c1.72,-0 3.115,1.395 3.115,3.114" style="fill:#323a8f;fill-rule:nonzero;"/><path d="M42.905,5.963c-0,0.118 -0.01,0.233 -0.028,0.346c-0.165,1.011 -1.043,1.783 -2.101,1.783c-1.059,0 -1.936,-0.772 -2.101,-1.783c-0.019,-0.113 -0.028,-0.228 -0.028,-0.346c-0,-1.176 0.953,-2.129 2.129,-2.129c1.176,0 2.129,0.953 2.129,2.129" style="fill:#fccc81;fill-rule:nonzero;"/><path d="M40.984,5.342c-0,0.046 -0.004,0.092 -0.011,0.136c-0.065,0.399 -0.41,0.702 -0.827,0.702c-0.416,0 -0.762,-0.303 -0.827,-0.702c-0.007,-0.044 -0.011,-0.09 -0.011,-0.136c-0,-0.462 0.375,-0.838 0.838,-0.838c0.463,0 0.838,0.376 0.838,0.838" style="fill:#fff;fill-rule:nonzero;"/><path d="M41.63,6.181c-0,0.03 -0.002,0.06 -0.007,0.088c-0.043,0.259 -0.267,0.457 -0.538,0.457c-0.271,-0 -0.496,-0.198 -0.538,-0.457c-0.004,-0.028 -0.007,-0.058 -0.007,-0.088c-0,-0.301 0.244,-0.545 0.545,-0.545c0.301,-0 0.545,0.244 0.545,0.545" style="fill:#fff;fill-rule:nonzero;"/><path d="M24.391,43.397c-0,0 14.878,18.15 33.188,0l-33.188,0Z" style="fill:#fccc81;fill-rule:nonzero;"/><path d="M46.796,33.613l-4.75,3.167l-1.661,-0l-4.794,-3.196c-0.648,-0.432 -1.515,0.032 -1.515,0.811l0,9.542c0,0.785 0.882,1.248 1.529,0.802l4.563,-3.151l2.009,-0l4.606,3.18c0.646,0.447 1.529,-0.016 1.529,-0.802l0,-9.542c0,-0.778 -0.868,-1.243 -1.516,-0.811" style="fill:#d33047;fill-rule:nonzero;"/><path d="M52.611,26.209c-0,-1.457 -1.183,-2.64 -2.64,-2.64l-18.72,0c-1.457,0 -2.64,1.183 -2.64,2.64l-0,5.28c-0,1.457 1.183,2.64 2.64,2.64l18.72,0c1.457,0 2.64,-1.183 2.64,-2.64l-0,-5.28Z" style="fill:#ebebeb;"/><path d="M29.815,27.794l-7.152,-4.5l-0.536,0.851l7.152,4.5l0.536,-0.851Z" style="fill:#ebebeb;"/><path d="M52.183,27.749l7.152,-4.5l0.536,0.851l-7.153,4.5l-0.535,-0.851Z" style="fill:#ebebeb;"/></g><defs><linearGradient id="_Linear1" x1="0" y1="0" x2="1" y2="0" gradientUnits="userSpaceOnUse" gradientTransform="matrix(-45.432,0,-0,-45.432,63.7049,37.0818)"><stop offset="0" style="stop-color:#323a8f;stop-opacity:1"/><stop offset="1" style="stop-color:#1d4e9d;stop-opacity:1"/></linearGradient><linearGradient id="_Linear3" x1="0" y1="0" x2="1" y2="0" gradientUnits="userSpaceOnUse" gradientTransform="matrix(0,2.98806,-2.98806,0,40.8148,27.9273)"><stop offset="0" style="stop-color:#a0d4d0;stop-opacity:1"/><stop offset="1" style="stop-color:#8aafdd;stop-opacity:1"/></linearGradient></defs></svg>