<?xml version="1.0" encoding="UTF-8" standalone="no"?>
<!DOCTYPE svg PUBLIC "-//W3C//DTD SVG 1.1//EN" "http://www.w3.org/Graphics/SVG/1.1/DTD/svg11.dtd">
<svg width="100%" height="100%" viewBox="0 0 721 513" version="1.1" xmlns="http://www.w3.org/2000/svg" xmlns:xlink="http://www.w3.org/1999/xlink" xml:space="preserve" xmlns:serif="http://www.serif.com/" style="fill-rule:evenodd;clip-rule:evenodd;stroke-linejoin:round;stroke-miterlimit:2;">
    <g transform="matrix(1,0,0,1,-4184.54,-1329.42)">
        <g transform="matrix(1,0,0,1,184,-10)">
            <g transform="matrix(4.1305,-0.547823,0.547823,4.1305,3635.8,-180.721)">
                <g transform="matrix(1.725,0,0,1.725,158.629,394.796)">
                    <path d="M0,5.566C-1.929,3.833 -4.182,2.448 -6.702,1.498C-7.635,1.143 -8.603,0.851 -9.594,0.637C-10.322,0.468 -11.057,0.351 -11.809,0.259L-11.802,0.208C-12.539,0.104 -13.28,0.041 -14.028,0.029C-15.041,0 -16.051,0.05 -17.055,0.169C-18.072,0.292 -19.067,0.485 -20.037,0.745C-21.231,1.065 -22.835,1.608 -24.625,2.563C-20.992,3.389 -16.955,4.131 -12.555,4.674C-8.026,5.232 -3.816,5.493 0,5.566" style="fill:rgb(50,58,143);fill-rule:nonzero;"/>
                </g>
                <g transform="matrix(-77.7939,-9.48614,-9.48614,77.7939,169.437,463.387)">
                    <path d="M0.994,-0.299C0.995,-0.185 0.996,-0.07 0.997,0.044C0.998,0.205 0.999,0.367 1,0.529C1,0.589 0.954,0.638 0.897,0.638L0.5,0.638L0.103,0.639C0.046,0.639 -0,0.591 -0,0.531C0.001,0.369 0.002,0.206 0.003,0.044C0.004,-0.07 0.005,-0.184 0.006,-0.297C0.006,-0.453 0.088,-0.567 0.129,-0.639C0.242,-0.626 0.37,-0.617 0.51,-0.617C0.643,-0.617 0.764,-0.626 0.872,-0.639C0.948,-0.547 0.994,-0.427 0.994,-0.299Z" style="fill:url(#_Linear1);fill-rule:nonzero;"/>
                </g>
                <g transform="matrix(-0.803789,1.52629,1.52629,0.803789,98.6281,443.681)">
                    <path d="M0.984,-22.987C-0.641,-24.451 -3.09,-22.493 -2.13,-20.505C0.348,-15.37 2.473,-8.896 0.984,-5.586L17.496,0.959C17.496,0.959 13.324,-11.875 0.984,-22.987" style="fill:rgb(50,58,143);fill-rule:nonzero;"/>
                </g>
                <g transform="matrix(0.813764,-1.52099,-1.52099,-0.813764,207.091,474.071)">
                    <path d="M-13.693,-0.505C-1.432,10.693 2.772,23.254 2.772,23.254L-13.693,16.593C-12.182,13.295 -14.383,7.107 -16.824,1.955C-17.771,-0.041 -15.308,-1.98 -13.693,-0.505" style="fill:rgb(50,58,143);fill-rule:nonzero;"/>
                </g>
                <g transform="matrix(1.725,0,0,1.725,132.281,431.605)">
                    <path d="M0,5.96C-2.017,5.714 -3.532,4.204 -3.5,2.522L4.224,3.465C3.851,5.105 2.017,6.206 0,5.96M16.868,-6.968L-12.516,-10.551C-14.493,-10.792 -16.276,-9.444 -16.508,-7.546L-18.532,9.052C-18.763,10.949 -17.356,12.687 -15.379,12.928L14.005,16.511C15.983,16.752 17.766,15.404 17.998,13.506L20.021,-3.092C20.252,-4.989 18.846,-6.727 16.868,-6.968" style="fill:rgb(160,212,208);fill-rule:nonzero;"/>
                </g>
                <g transform="matrix(1.725,0,0,1.725,105.756,412.834)">
                    <path d="M0,23.805L-0.756,23.713C-2.729,23.472 -4.141,21.737 -3.91,19.837L-1.887,3.245C-1.655,1.346 0.133,0 2.106,0.242L2.862,0.333C0.886,0.092 -0.902,1.438 -1.134,3.337L-3.157,19.929C-3.389,21.828 -1.977,23.564 0,23.805" style="fill:white;fill-rule:nonzero;"/>
                </g>
                <g transform="matrix(1.725,0,0,1.725,-126.557,-198.705)">
                    <g opacity="0.9">
                        <g>
                            <clipPath id="_clip2">
                                <path d="M149.996,371.346C147.973,371.099 146.453,369.589 146.484,367.908L154.232,368.852C153.857,370.493 152.019,371.592 149.996,371.346ZM166.909,358.424L137.438,354.83C135.455,354.588 133.667,355.936 133.435,357.834L131.412,374.431C131.18,376.33 132.592,378.067 134.575,378.309L164.046,381.902C166.029,382.144 167.817,380.797 168.049,378.899L170.072,362.301C170.304,360.404 168.892,358.665 166.909,358.424Z" clip-rule="nonzero"/>
                            </clipPath>
                            <g clip-path="url(#_clip2)">
                                <g opacity="0.51">
                                    <g transform="matrix(0.992647,0.121045,0.121045,-0.992647,133.911,352.126)">
                                        <rect x="-0.435" y="-7.161" width="37.671" height="4.899" style="fill:rgb(160,212,208);"/>
                                    </g>
                                    <g transform="matrix(0.992643,0.121074,0.121074,-0.992643,133.456,355.859)">
                                        <rect x="-0.435" y="-7.162" width="37.671" height="4.899" style="fill:rgb(132,180,200);"/>
                                    </g>
                                    <g transform="matrix(0.992647,0.121045,0.121045,-0.992647,133.001,359.594)">
                                        <rect x="-0.435" y="-7.162" width="37.671" height="4.9" style="fill:rgb(105,149,189);"/>
                                    </g>
                                    <g transform="matrix(0.992647,0.121048,0.121048,-0.992647,132.545,363.328)">
                                        <rect x="-0.435" y="-7.161" width="37.671" height="4.899" style="fill:rgb(83,117,174);"/>
                                    </g>
                                    <g transform="matrix(0.992647,0.121045,0.121045,-0.992647,132.09,367.063)">
                                        <rect x="-0.435" y="-7.161" width="37.671" height="4.899" style="fill:rgb(64,86,159);"/>
                                    </g>
                                    <g transform="matrix(0.992647,0.121045,0.121045,-0.992647,131.634,370.797)">
                                        <rect x="-0.435" y="-7.161" width="37.671" height="4.899" style="fill:rgb(50,58,143);"/>
                                    </g>
                                </g>
                            </g>
                        </g>
                    </g>
                </g>
                <g transform="matrix(1.725,0,0,1.725,95.9969,474.799)">
                    <path d="M0,16.369C-0.048,16.727 -0.023,17.08 0.059,17.417L16.51,19.423L32.956,21.474C33.121,21.169 33.23,20.829 33.27,20.467C34.088,13.283 34.91,6.098 35.729,-1.087L2.785,-5.105C1.857,2.053 0.927,9.209 0,16.369" style="fill:rgb(137,175,221);fill-rule:nonzero;"/>
                </g>
                <g transform="matrix(1.725,0,0,1.725,144.291,404.337)">
                    <path d="M0,1.105C-0.03,1.35 -0.079,1.587 -0.146,1.815C-0.744,3.872 -2.76,5.251 -4.955,4.983C-7.15,4.715 -8.776,2.892 -8.862,0.752C-8.873,0.515 -8.863,0.273 -8.833,0.028C-8.536,-2.41 -6.317,-4.146 -3.878,-3.849C-1.439,-3.551 0.297,-1.333 0,1.105" style="fill:rgb(137,175,221);fill-rule:nonzero;"/>
                </g>
                <g transform="matrix(-0.623904,5.11651,5.11651,0.623904,132.906,436.769)">
                    <path d="M1,-0C1,0.68 0.56,1.244 0,1.302L-0,-1.302C0.56,-1.245 1,-0.68 1,-0Z" style="fill:url(#_Linear3);fill-rule:nonzero;"/>
                </g>
                <g transform="matrix(1.725,0,0,1.725,139.553,430.093)">
                    <path d="M0,3.294L-7.599,2.367C-7.055,0.926 -5.354,0 -3.483,0.229C-1.609,0.457 -0.182,1.764 0,3.294" style="fill:rgb(252,204,129);fill-rule:nonzero;"/>
                </g>
                <g transform="matrix(1.725,0,0,1.725,139.473,440.664)">
                    <path d="M0,-1.799C-0.374,-0.158 -2.207,0.942 -4.224,0.696C-6.241,0.45 -7.756,-1.059 -7.725,-2.741L0,-1.799Z" style="fill:rgb(252,204,129);fill-rule:nonzero;"/>
                </g>
                <g transform="matrix(1.725,0,0,1.725,142.005,404.63)">
                    <path d="M0,0.774C-0.021,0.945 -0.055,1.111 -0.102,1.271C-0.521,2.711 -1.932,3.676 -3.468,3.489C-5.005,3.301 -6.143,2.025 -6.203,0.527C-6.21,0.361 -6.204,0.191 -6.183,0.02C-5.975,-1.687 -4.422,-2.902 -2.714,-2.694C-1.007,-2.486 0.208,-0.933 0,0.774" style="fill:rgb(50,58,143);fill-rule:nonzero;"/>
                </g>
                <g transform="matrix(1.725,0,0,1.725,140.318,404.846)">
                    <path d="M0,0.53C-0.014,0.647 -0.038,0.76 -0.07,0.87C-0.356,1.854 -1.321,2.513 -2.371,2.385C-3.421,2.258 -4.2,1.385 -4.241,0.361C-4.246,0.248 -4.241,0.132 -4.227,0.014C-4.085,-1.153 -3.023,-1.983 -1.856,-1.841C-0.688,-1.699 0.143,-0.637 0,0.53" style="fill:rgb(252,204,129);fill-rule:nonzero;"/>
                </g>
                <g transform="matrix(1.725,0,0,1.725,137.158,403.937)">
                    <path d="M0,0.208C-0.005,0.254 -0.015,0.299 -0.027,0.342C-0.14,0.729 -0.52,0.989 -0.933,0.938C-1.347,0.888 -1.653,0.545 -1.669,0.142C-1.671,0.097 -1.669,0.051 -1.664,0.005C-1.608,-0.454 -1.19,-0.781 -0.73,-0.726C-0.271,-0.669 0.056,-0.251 0,0.208" style="fill:white;fill-rule:nonzero;"/>
                </g>
                <g transform="matrix(1.725,0,0,1.725,138.088,405.631)">
                    <path d="M0,0.136C-0.003,0.165 -0.01,0.195 -0.018,0.223C-0.091,0.475 -0.338,0.644 -0.607,0.611C-0.875,0.578 -1.075,0.355 -1.085,0.093C-1.086,0.064 -1.085,0.033 -1.082,0.004C-1.045,-0.295 -0.773,-0.508 -0.475,-0.47C-0.176,-0.434 0.037,-0.163 0,0.136" style="fill:white;fill-rule:nonzero;"/>
                </g>
                <g transform="matrix(1.725,0,0,1.725,100.8,500.178)">
                    <path d="M0,-19.817C0,-19.817 12.571,0 32.944,-15.799L0,-19.817Z" style="fill:rgb(252,204,129);fill-rule:nonzero;"/>
                </g>
                <g transform="matrix(1.725,0,0,1.725,141.209,470.651)">
                    <path d="M0,-9.701L-5.098,-7.133L-6.747,-7.334L-11.119,-11.086C-11.709,-11.594 -12.627,-11.237 -12.721,-10.465L-13.876,-0.993C-13.972,-0.213 -13.152,0.354 -12.456,-0.012L-7.545,-2.587L-5.551,-2.344L-1.363,1.371C-0.776,1.893 0.156,1.54 0.251,0.76L1.406,-8.712C1.5,-9.485 0.695,-10.051 0,-9.701" style="fill:rgb(211,48,71);fill-rule:nonzero;"/>
                </g>
                <g transform="matrix(1.725,0,0,1.725,114.432,422.282)">
                    <path d="M0,5.786C0.294,5.644 1.03,5.338 1.991,5.446C3,5.56 3.671,6.064 3.92,6.272C4.094,4.87 4.268,3.469 4.441,2.067C4.59,0.871 3.838,-0.239 2.744,-0.371L2.719,-0.374C2.711,-0.375 2.703,-0.376 2.695,-0.377C1.629,-0.486 0.669,0.39 0.524,1.553L0,5.786Z" style="fill:rgb(50,58,143);fill-rule:nonzero;"/>
                </g>
                <g transform="matrix(1.725,0,0,1.725,144.821,426.049)">
                    <path d="M0,5.786C0.294,5.644 1.03,5.339 1.991,5.446C3,5.56 3.671,6.064 3.92,6.272C4.094,4.871 4.268,3.469 4.441,2.067C4.59,0.871 3.838,-0.239 2.744,-0.371L2.719,-0.374C2.711,-0.375 2.703,-0.376 2.695,-0.377C1.629,-0.486 0.668,0.39 0.524,1.553L0,5.786Z" style="fill:rgb(50,58,143);fill-rule:nonzero;"/>
                </g>
                <g transform="matrix(1.725,0,0,1.725,102.62,380.948)">
                    <path d="M0,13.236L-9.66,3.37L-5.599,0L0,13.236Z" style="fill:rgb(252,204,129);fill-rule:nonzero;"/>
                </g>
                <g transform="matrix(1.725,0,0,1.725,106.428,382.441)">
                    <path d="M0,9.598L-2.216,0.561L1.296,0L0,9.598Z" style="fill:rgb(252,204,129);fill-rule:nonzero;"/>
                </g>
                <g transform="matrix(1.725,0,0,1.725,98.277,397.752)">
                    <path d="M0,4.911L-6.639,0L-8.729,2.282L0,4.911Z" style="fill:rgb(252,204,129);fill-rule:nonzero;"/>
                </g>
            </g>
        </g>
        <g transform="matrix(1,0,0,1,184,-10)">
            <g transform="matrix(3.05698,0,0,2.83152,3947.7,309.927)">
                <g transform="matrix(0.0453188,0,0,0.0453188,-14.2566,379.022)">
                    <path d="M1440,1163C1440,1156.93 1435.43,1152 1429.81,1152L1350.19,1152C1344.57,1152 1340,1156.93 1340,1163L1340,1185C1340,1191.07 1344.57,1196 1350.19,1196L1429.81,1196C1435.43,1196 1440,1191.07 1440,1185L1440,1163Z" style="fill:rgb(235,235,235);"/>
                </g>
                <g transform="matrix(0.0482329,0.030348,-0.0252827,0.0401825,11.1296,344.526)">
                    <rect x="1318" y="1161" width="28" height="4" style="fill:rgb(235,235,235);"/>
                </g>
                <g transform="matrix(-0.0482329,0.030348,0.0252827,0.0401825,86.49,344.518)">
                    <rect x="1318" y="1161" width="28" height="4" style="fill:rgb(235,235,235);"/>
                </g>
                <g transform="matrix(0.0870382,0,0,0.0870382,-65.5287,365.622)">
                    <path d="M1459.54,1357.64L1028.56,1357.64C986.166,1357.64 951.481,1322.95 951.481,1280.56L951.481,333.247C951.481,290.854 986.166,256.17 1028.56,256.17L1459.54,256.17C1501.93,256.17 1536.61,290.854 1536.61,333.247L1536.61,1280.56C1536.61,1322.95 1501.93,1357.64 1459.54,1357.64Z" style="fill:rgb(43,71,139);fill-rule:nonzero;"/>
                </g>
                <g transform="matrix(0.0870382,0,0,0.0870382,-65.5287,365.622)">
                    <path d="M1507.61,340.542L1507.61,1265.9C1507.61,1297.29 1482.11,1322.97 1450.96,1322.97L1037.13,1322.97C1005.98,1322.97 980.487,1297.29 980.487,1265.9L980.487,340.542C980.487,309.149 1005.98,283.471 1037.13,283.471L1450.96,283.471C1482.11,283.471 1507.61,309.149 1507.61,340.542Z" style="fill:rgb(192,216,251);fill-rule:nonzero;"/>
                </g>
                <g transform="matrix(0.0870382,0,0,0.0870382,-65.5287,365.622)">
                    <path d="M1450.96,283.471L1042.25,1322.97L1037.13,1322.97C1005.98,1322.97 980.487,1297.29 980.487,1265.9L980.487,340.542C980.487,309.149 1005.98,283.471 1037.13,283.471L1450.96,283.471Z" style="fill:rgb(203,225,253);fill-rule:nonzero;"/>
                </g>
                <g transform="matrix(0.0870382,0,0,0.0870382,-65.5287,365.622)">
                    <path d="M1330.53,317.884L1157.57,317.884C1143.48,317.884 1131.96,306.356 1131.96,292.268L1131.96,288.241C1131.96,274.152 1143.48,262.625 1157.57,262.625L1330.53,262.625C1344.62,262.625 1356.14,274.152 1356.14,288.241L1356.14,292.268C1356.14,306.356 1344.62,317.884 1330.53,317.884Z" style="fill:rgb(43,71,139);fill-rule:nonzero;"/>
                </g>
            </g>
        </g>
    </g>
    <defs>
        <linearGradient id="_Linear1" x1="0" y1="0" x2="1" y2="0" gradientUnits="userSpaceOnUse" gradientTransform="matrix(1,1.38778e-17,1.38778e-17,-1,0,2.35826e-06)"><stop offset="0" style="stop-color:rgb(50,58,143);stop-opacity:1"/><stop offset="1" style="stop-color:rgb(29,78,157);stop-opacity:1"/></linearGradient>
        <linearGradient id="_Linear3" x1="0" y1="0" x2="1" y2="0" gradientUnits="userSpaceOnUse" gradientTransform="matrix(1,-1.38778e-17,-1.38778e-17,-1,0,-0.000293642)"><stop offset="0" style="stop-color:rgb(160,212,208);stop-opacity:1"/><stop offset="1" style="stop-color:rgb(138,175,221);stop-opacity:1"/></linearGradient>
    </defs>
</svg>
