<?xml version="1.0" encoding="UTF-8" standalone="no"?>
<!DOCTYPE svg PUBLIC "-//W3C//DTD SVG 1.1//EN" "http://www.w3.org/Graphics/SVG/1.1/DTD/svg11.dtd">
<svg width="100%" height="100%" viewBox="0 0 1058 358" version="1.1" xmlns="http://www.w3.org/2000/svg" xmlns:xlink="http://www.w3.org/1999/xlink" xml:space="preserve" xmlns:serif="http://www.serif.com/" style="fill-rule:evenodd;clip-rule:evenodd;stroke-linejoin:round;stroke-miterlimit:2;">
    <g transform="matrix(1,0,0,1,-3990.44,-346.441)">
        <g transform="matrix(1,0,0,1,184,-10)">
            <g transform="matrix(1,0,0,1,593,8)">
                <g transform="matrix(1.15031,0,0,1.07151,-635.029,-26.6156)">
                    <g transform="matrix(4.16667,0,0,4.16667,3979.62,394.307)">
                        <path d="M0,27.906C-1.418,29 -3.416,29.547 -5.991,29.547L-14.174,29.547L-14.174,16.877L-5.991,16.877C-3.416,16.877 -1.418,17.413 0,18.485C1.418,19.557 2.128,21.122 2.128,23.179C2.128,25.237 1.418,26.812 0,27.906M-14.174,-1.641L-6.645,-1.641C-4.463,-1.641 -2.771,-1.181 -1.571,-0.261C-0.371,0.66 0.229,1.987 0.229,3.719C0.229,5.452 -0.371,6.779 -1.571,7.699C-2.771,8.619 -4.463,9.08 -6.645,9.08L-14.174,9.08L-14.174,-1.641ZM3.306,12.686C5.576,11.711 7.322,10.325 8.544,8.527C9.766,6.73 10.377,4.542 10.377,1.965C10.377,-2.064 8.92,-5.134 6.007,-7.245C3.094,-9.357 -0.993,-10.413 -6.252,-10.413L-24.191,-10.413L-24.191,38.319L-5.63,38.319C0.022,38.319 4.419,37.165 7.562,34.859C10.705,32.552 12.276,29.211 12.276,24.836C12.276,21.804 11.501,19.264 9.952,17.218C8.402,15.171 6.187,13.66 3.306,12.686" style="fill:rgb(50,58,143);fill-rule:nonzero;"/>
                    </g>
                    <g transform="matrix(4.16667,0,0,4.16667,2287.22,-872.553)">
                        <rect x="425.162" y="293.634" width="10.018" height="48.731" style="fill:rgb(50,58,143);"/>
                    </g>
                    <g transform="matrix(4.16667,0,0,4.16667,4177.67,387.472)">
                        <path d="M0,31.187L0,-8.772L-10.018,-8.772L-10.018,39.959L20.885,39.959L20.885,31.187L0,31.187Z" style="fill:rgb(50,58,143);fill-rule:nonzero;"/>
                    </g>
                </g>
                <g transform="matrix(1,0,0,1,-1258,7)">
                    <text x="4469px" y="432.994px" style="font-family:'KumbhSans-Bold', 'Kumbh Sans';font-weight:700;font-size:125px;fill:rgb(255,204,128);">Bonjour<tspan x="4916.51px " y="432.994px ">,</tspan></text>
                    <text x="4469px" y="557.994px" style="font-family:'KumbhSans-Bold', 'Kumbh Sans';font-weight:700;font-size:125px;fill:rgb(255,204,128);">c&apos;<tspan x="4565.56px 4637.03px 4695.14px " y="557.994px 557.994px 557.994px ">est</tspan> moi,</text>
                </g>
            </g>
            <g transform="matrix(1,0,0,1,-254,-5)">
                <text x="4058px" y="697.663px" style="font-family:'KumbhSans-Regular', 'Kumbh Sans';font-size:83.333px;fill:rgb(50,58,143);">V<tspan x="4114.32px 4163.55px 4195.78px " y="697.663px 697.663px 697.663px ">otr</tspan>e compagnon de  vie</text>
            </g>
        </g>
    </g>
</svg>
