<svg xmlns="http://www.w3.org/2000/svg" xmlns:xlink="http://www.w3.org/1999/xlink" viewBox="0 0 77.79 76.09"><defs><style>.cls-1{fill:none;}.cls-2{fill:#333a8f;}.cls-3{fill:url(#Dégradé_sans_nom_379);}.cls-4{fill:#a1d5d0;}.cls-5{fill:#fff;}.cls-6{opacity:0.9;}.cls-7{clip-path:url(#clip-path);}.cls-8{opacity:0.51;}.cls-9{fill:#85b5c8;}.cls-10{fill:#6a95bd;}.cls-11{fill:#5375ae;}.cls-12{fill:#41569f;}.cls-13{fill:#8aafde;}.cls-14{fill:url(#Dégradé_sans_nom_14);}.cls-15{fill:#fccc81;}.cls-16{fill:#d33047;}</style><linearGradient id="Dégradé_sans_nom_379" x1="38.11" y1="7.92" x2="-7.32" y2="7.92" gradientTransform="translate(25.04 35.32) rotate(6.95)" gradientUnits="userSpaceOnUse"><stop offset="0" stop-color="#333a8f"/><stop offset="0.44" stop-color="#2e3f92"/><stop offset="0.93" stop-color="#204c9b"/><stop offset="1" stop-color="#1e4e9d"/></linearGradient><clipPath id="clip-path"><path class="cls-1" d="M57.23,22.39,27.76,18.8a3.53,3.53,0,0,0-4,3l-2,16.6a3.54,3.54,0,0,0,3.17,3.88l29.47,3.59a3.53,3.53,0,0,0,4-3l2-16.6A3.53,3.53,0,0,0,57.23,22.39ZM40.32,35.31a3.69,3.69,0,0,1-3.51-3.43l7.74.94A3.71,3.71,0,0,1,40.32,35.31Z"/></clipPath><linearGradient id="Dégradé_sans_nom_14" x1="15.22" y1="-4.84" x2="15.22" y2="-1.85" gradientTransform="translate(25.04 35.32) rotate(6.95)" gradientUnits="userSpaceOnUse"><stop offset="0" stop-color="#a1d5d0"/><stop offset="0.31" stop-color="#9ed0d2"/><stop offset="0.67" stop-color="#96c2d7"/><stop offset="1" stop-color="#8aafde"/></linearGradient></defs><title>Fichier 7</title><g id="Calque_2" data-name="Calque 2"><g id="Calque_1-2" data-name="Calque 1"><path class="cls-2" d="M55.65,13.59a21.07,21.07,0,0,0-6.71-4.06,20.09,20.09,0,0,0-2.89-.87c-.73-.16-1.46-.28-2.21-.37V8.23a18.12,18.12,0,0,0-2.22-.17,20.5,20.5,0,0,0-3,.14,20.91,20.91,0,0,0-3,.57A22,22,0,0,0,31,10.59,119.5,119.5,0,0,0,43.09,12.7,120.34,120.34,0,0,0,55.65,13.59Z"/><path class="cls-3" d="M63.3,34.35c.81-7-2.22-12.61-3.7-16.1a139.92,139.92,0,0,1-17.31-1.1,139.23,139.23,0,0,1-16.2-3,24.62,24.62,0,0,0-7.38,14.69c-.66,5.14-1.32,10.29-2,15.42q-1.39,10.95-2.82,21.9A4.81,4.81,0,0,0,18,71.63L35.85,73.8l17.88,2.25A4.8,4.8,0,0,0,59,71.73q1.26-11,2.54-22C62.11,44.6,62.7,39.48,63.3,34.35Z"/><path class="cls-2" d="M.07,26.53a2,2,0,0,1,3.64-1.6c3.39,4.58,8.13,9.48,11.75,9.7l-1.9,17.66A61.53,61.53,0,0,1,.07,26.53Z"/><path class="cls-2" d="M77.73,66.3A62.93,62.93,0,0,0,64.54,40.57L62.65,58.23c3.62.22,8,5.08,11.43,9.67A2,2,0,0,0,77.73,66.3Z"/><path class="cls-4" d="M57.24,22.4,27.86,18.82a3.53,3.53,0,0,0-4,3l-2,16.6A3.53,3.53,0,0,0,25,42.29l29.39,3.59a3.54,3.54,0,0,0,4-3l2-16.6A3.53,3.53,0,0,0,57.24,22.4ZM40.37,35.33a3.72,3.72,0,0,1-3.5-3.44l7.73.94A3.73,3.73,0,0,1,40.37,35.33Z"/><path class="cls-5" d="M25,42.29l-.76-.09a3.53,3.53,0,0,1-3.15-3.88l2-16.59a3.53,3.53,0,0,1,4-3l.76.09a3.53,3.53,0,0,0-4,3l-2,16.59A3.54,3.54,0,0,0,25,42.29Z"/><g class="cls-6"><g class="cls-7"><g class="cls-8"><rect class="cls-4" x="39.48" y="4.16" width="4.9" height="37.67" transform="translate(14.02 61.83) rotate(-83.05)"/><rect class="cls-9" x="39.02" y="7.9" width="4.9" height="37.67" transform="translate(9.92 64.66) rotate(-83.05)"/><rect class="cls-10" x="38.57" y="11.63" width="4.9" height="37.67" transform="translate(5.81 67.49) rotate(-83.05)"/><rect class="cls-11" x="38.11" y="15.37" width="4.9" height="37.67" transform="translate(1.7 70.33) rotate(-83.05)"/><rect class="cls-12" x="37.66" y="19.1" width="4.9" height="37.67" transform="translate(-2.4 73.16) rotate(-83.05)"/><rect class="cls-2" x="37.2" y="22.83" width="4.9" height="37.67" transform="translate(-6.51 75.99) rotate(-83.05)"/></g></g></g><path class="cls-13" d="M19.34,70.77a2.63,2.63,0,0,0,.06,1l16.45,2h0l16.44,2a2.66,2.66,0,0,0,.32-1l2.46-21.55-32.95-4Q20.73,60,19.34,70.77Z"/><path class="cls-13" d="M47.33,14.66a3.88,3.88,0,0,1-.14.71,4.45,4.45,0,0,1-8.72-1.06,4.34,4.34,0,0,1,0-.72,4.45,4.45,0,1,1,8.83,1.07Z"/><path class="cls-14" d="M44.6,32.83a3.73,3.73,0,0,1-4.23,2.5,3.72,3.72,0,0,1-3.5-3.44Z"/><path class="cls-15" d="M44.59,31.78,37,30.86a3.8,3.8,0,0,1,4.11-2.14A3.8,3.8,0,0,1,44.59,31.78Z"/><path class="cls-15" d="M44.54,32.82a3.7,3.7,0,0,1-4.22,2.49,3.7,3.7,0,0,1-3.5-3.43Z"/><path class="cls-2" d="M46,14.5a4,4,0,0,1-.1.5,3.11,3.11,0,0,1-6.1-.74,2.9,2.9,0,0,1,0-.51A3.11,3.11,0,1,1,46,14.5Z"/><path class="cls-15" d="M45,14.38a1.86,1.86,0,0,1-.07.34,2.13,2.13,0,0,1-4.17-.51c0-.11,0-.23,0-.34a2.13,2.13,0,1,1,4.23.51Z"/><path class="cls-5" d="M43.2,13.53a.58.58,0,0,1,0,.14.83.83,0,0,1-.9.6.85.85,0,0,1-.74-.8.66.66,0,0,1,0-.14.84.84,0,0,1,1.66.2Z"/><path class="cls-5" d="M43.74,14.44a.29.29,0,0,1,0,.09.55.55,0,0,1-1.07-.13.28.28,0,0,1,0-.09.53.53,0,0,1,.6-.47A.54.54,0,0,1,43.74,14.44Z"/><path class="cls-15" d="M22.12,49.3s12.57,19.82,33,4Z"/><path class="cls-16" d="M45.55,42.3l-5.1,2.57-1.65-.2-4.37-3.75a1,1,0,0,0-1.6.62L31.67,51a1,1,0,0,0,1.42,1L38,49.41l2,.25,4.18,3.71a1,1,0,0,0,1.62-.61L47,43.29A1,1,0,0,0,45.55,42.3Z"/><path class="cls-2" d="M30,29.75a3.67,3.67,0,0,1,3.93.48l.52-4.2a2.12,2.12,0,0,0-1.7-2.44h-.05a2.09,2.09,0,0,0-2.17,1.93Z"/><path class="cls-2" d="M47.64,31.93a3.63,3.63,0,0,1,3.92.49l.52-4.21a2.12,2.12,0,0,0-1.69-2.44h0a2.09,2.09,0,0,0-2.17,1.93Z"/><polygon class="cls-15" points="23.18 13.24 13.52 3.37 17.58 0 23.18 13.24"/><polygon class="cls-15" points="25.39 10.46 23.17 1.43 26.68 0.87 25.39 10.46"/><polygon class="cls-15" points="20.66 14.65 14.02 9.74 11.93 12.02 20.66 14.65"/></g></g></svg>