<?xml version="1.0" encoding="UTF-8" standalone="no"?>
<!DOCTYPE svg PUBLIC "-//W3C//DTD SVG 1.1//EN" "http://www.w3.org/Graphics/SVG/1.1/DTD/svg11.dtd">
<svg width="100%" height="100%" viewBox="0 0 605 489" version="1.1" xmlns="http://www.w3.org/2000/svg" xmlns:xlink="http://www.w3.org/1999/xlink" xml:space="preserve" xmlns:serif="http://www.serif.com/" style="fill-rule:evenodd;clip-rule:evenodd;stroke-linejoin:round;stroke-miterlimit:2;">
    <g transform="matrix(1,0,0,1,-483.171,-1869.98)">
        <g transform="matrix(4.16667,0,0,4.16667,184,-10)">
            <g transform="matrix(1.66314,0.615308,-0.615308,1.66314,91.5449,-42.1142)">
                <g transform="matrix(1,0,0,1,137.417,257.708)">
                    <path d="M0,-7.809C-2.51,-8.461 -5.147,-8.656 -7.822,-8.34C-8.813,-8.226 -9.807,-8.04 -10.786,-7.775C-11.51,-7.59 -12.216,-7.356 -12.926,-7.092L-12.944,-7.142C-13.646,-6.894 -14.333,-6.61 -15.003,-6.276C-15.917,-5.836 -16.79,-5.327 -17.627,-4.76C-18.474,-4.184 -19.269,-3.554 -20.01,-2.877C-20.923,-2.044 -22.098,-0.825 -23.248,0.847C-19.642,-0.09 -15.716,-1.288 -11.559,-2.829C-7.281,-4.415 -3.422,-6.12 0,-7.809" style="fill:rgb(50,58,143);fill-rule:nonzero;"/>
                </g>
                <g transform="matrix(-42.5765,15.8527,15.8527,42.5765,158.705,277.386)">
                    <path d="M0.51,-0.617C0.643,-0.617 0.764,-0.626 0.872,-0.639C0.948,-0.547 0.994,-0.427 0.994,-0.299C0.995,-0.185 0.996,-0.07 0.997,0.044C0.998,0.205 0.999,0.367 1,0.529C1,0.589 0.954,0.638 0.897,0.638L0.5,0.638L0.103,0.639C0.046,0.639 -0,0.591 0,0.531C0.001,0.369 0.002,0.206 0.003,0.044C0.004,-0.07 0.005,-0.184 0.006,-0.297C0.006,-0.453 0.088,-0.567 0.129,-0.639C0.242,-0.626 0.37,-0.617 0.51,-0.617Z" style="fill:url(#_Linear1);fill-rule:nonzero;"/>
                </g>
                <g transform="matrix(-0.0210347,0.999779,0.999779,0.0210347,112.816,284.087)">
                    <path d="M4.843,-17.691C3.218,-19.154 0.769,-17.197 1.729,-15.209C4.207,-10.074 6.33,-3.599 4.843,-0.291L21.353,6.256C21.353,6.256 17.182,-6.578 4.843,-17.691" style="fill:rgb(50,58,143);fill-rule:nonzero;"/>
                </g>
                <g transform="matrix(-0.67494,-0.737872,-0.737872,0.67494,151.476,276.804)">
                    <path d="M-1.151,-25.997C-13.412,-14.799 -17.616,-2.238 -17.616,-2.238L-1.151,-8.899C-2.663,-12.198 -0.462,-18.385 1.98,-23.537C2.926,-25.532 0.463,-27.473 -1.151,-25.997" style="fill:rgb(50,58,143);fill-rule:nonzero;"/>
                </g>
                <g transform="matrix(1,0,0,1,133.846,270.243)">
                    <path d="M0,5.977C-1.904,6.686 -3.943,6.042 -4.689,4.535L2.604,1.819C3.026,3.448 1.904,5.268 0,5.977M9.035,-13.258L-18.706,-2.929C-20.573,-2.234 -21.537,-0.217 -20.869,1.575L-15.035,17.244C-14.368,19.036 -12.32,19.931 -10.453,19.236L17.288,8.907C19.155,8.212 20.119,6.195 19.452,4.403L13.618,-11.266C12.95,-13.058 10.902,-13.954 9.035,-13.258" style="fill:rgb(160,212,208);fill-rule:nonzero;"/>
                </g>
                <g transform="matrix(1,0,0,1,123.393,268.275)">
                    <path d="M0,21.2L-0.713,21.466C-2.577,22.159 -4.628,21.268 -5.296,19.474L-11.128,3.81C-11.796,2.017 -10.827,0 -8.964,-0.694L-8.25,-0.959C-10.117,-0.264 -11.086,1.752 -10.418,3.546L-4.586,19.21C-3.918,21.003 -1.866,21.895 0,21.2" style="fill:white;fill-rule:nonzero;"/>
                </g>
                <g opacity="0.9">
                    <g>
                        <clipPath id="_clip2">
                            <path d="M133.792,276.236C131.882,276.947 129.838,276.305 129.092,274.797L136.407,272.074C136.829,273.703 135.702,275.525 133.792,276.236ZM142.87,256.985L115.046,267.344C113.174,268.041 112.206,270.06 112.873,271.852L118.707,287.521C119.375,289.313 121.427,290.207 123.299,289.51L151.123,279.15C152.995,278.453 153.963,276.434 153.296,274.642L147.462,258.974C146.794,257.181 144.742,256.288 142.87,256.985Z" clip-rule="nonzero"/>
                        </clipPath>
                        <g clip-path="url(#_clip2)">
                            <g opacity="0.51">
                                <g transform="matrix(0.937144,-0.348944,-0.348944,-0.937144,113.708,275.024)">
                                    <rect x="-0.329" y="1.826" width="37.671" height="4.9" style="fill:rgb(160,212,208);"/>
                                </g>
                                <g transform="matrix(0.937147,-0.348935,-0.348935,-0.937147,115.021,278.549)">
                                    <rect x="-0.329" y="1.827" width="37.671" height="4.9" style="fill:rgb(132,180,200);"/>
                                </g>
                                <g transform="matrix(0.937147,-0.348935,-0.348935,-0.937147,116.333,282.075)">
                                    <rect x="-0.329" y="1.827" width="37.671" height="4.9" style="fill:rgb(105,149,189);"/>
                                </g>
                                <g transform="matrix(0.937147,-0.348935,-0.348935,-0.937147,117.646,285.6)">
                                    <rect x="-0.329" y="1.827" width="37.671" height="4.9" style="fill:rgb(83,117,174);"/>
                                </g>
                                <g transform="matrix(0.937144,-0.348944,-0.348944,-0.937144,118.959,289.126)">
                                    <rect x="-0.329" y="1.826" width="37.671" height="4.9" style="fill:rgb(64,86,159);"/>
                                </g>
                                <g transform="matrix(0.937147,-0.348935,-0.348935,-0.937147,120.271,292.651)">
                                    <rect x="-0.329" y="1.827" width="37.671" height="4.9" style="fill:rgb(50,58,143);"/>
                                </g>
                            </g>
                        </g>
                    </g>
                </g>
                <g transform="matrix(1,0,0,1,131.466,286.346)">
                    <path d="M0,31.026C0.123,31.367 0.307,31.669 0.535,31.929L16.066,26.147L31.614,20.407C31.619,20.059 31.56,19.708 31.429,19.368C28.853,12.612 26.278,5.855 23.701,-0.903L-7.401,10.677C-4.934,17.46 -2.469,24.242 0,31.026" style="fill:rgb(137,175,221);fill-rule:nonzero;"/>
                </g>
                <g transform="matrix(1,0,0,1,130.528,257.691)">
                    <path d="M0,-3.02C0.086,-2.79 0.151,-2.556 0.197,-2.323C0.611,-0.221 -0.545,1.931 -2.617,2.702C-4.689,3.474 -6.971,2.602 -8.032,0.741C-8.15,0.535 -8.253,0.315 -8.339,0.085C-9.196,-2.217 -8.024,-4.779 -5.722,-5.636C-3.418,-6.494 -0.857,-5.322 0,-3.02" style="fill:rgb(137,175,221);fill-rule:nonzero;"/>
                </g>
                <g transform="matrix(1.04263,2.80026,2.80026,-1.04263,132.803,273.42)">
                    <path d="M0,-1.302C0.56,-1.244 1,-0.68 1,-0C1,0.68 0.56,1.245 0,1.302L0,-1.302Z" style="fill:url(#_Linear3);fill-rule:nonzero;"/>
                </g>
                <g transform="matrix(1,0,0,1,135.36,270.209)">
                    <path d="M0,-0.892L-7.174,1.779C-7.354,0.249 -6.27,-1.355 -4.503,-2.013C-2.734,-2.671 -0.865,-2.167 0,-0.892" style="fill:rgb(252,204,129);fill-rule:nonzero;"/>
                </g>
                <g transform="matrix(1,0,0,1,136.45,276.929)">
                    <path d="M0,-4.867C0.422,-3.239 -0.7,-1.418 -2.604,-0.709C-4.508,0 -6.547,-0.644 -7.293,-2.152L0,-4.867Z" style="fill:rgb(252,204,129);fill-rule:nonzero;"/>
                </g>
                <g transform="matrix(1,0,0,1,129.277,257.25)">
                    <path d="M0,-2.113C0.06,-1.951 0.106,-1.788 0.137,-1.625C0.428,-0.154 -0.382,1.352 -1.832,1.892C-3.283,2.432 -4.88,1.823 -5.623,0.52C-5.706,0.376 -5.777,0.222 -5.838,0.06C-6.437,-1.551 -5.618,-3.344 -4.005,-3.945C-2.394,-4.545 -0.6,-3.724 0,-2.113" style="fill:rgb(50,58,143);fill-rule:nonzero;"/>
                </g>
                <g transform="matrix(1,0,0,1,128.354,256.926)">
                    <path d="M0,-1.445C0.041,-1.335 0.072,-1.223 0.094,-1.111C0.292,-0.106 -0.261,0.924 -1.252,1.293C-2.244,1.662 -3.336,1.245 -3.844,0.355C-3.9,0.257 -3.95,0.151 -3.991,0.041C-4.401,-1.061 -3.84,-2.286 -2.738,-2.697C-1.636,-3.107 -0.41,-2.547 0,-1.445" style="fill:rgb(252,204,129);fill-rule:nonzero;"/>
                </g>
                <g transform="matrix(1,0,0,1,126.337,256.139)">
                    <path d="M0,-0.57C0.016,-0.527 0.028,-0.482 0.037,-0.438C0.115,-0.043 -0.103,0.363 -0.493,0.508C-0.883,0.654 -1.313,0.49 -1.513,0.139C-1.536,0.1 -1.555,0.058 -1.571,0.015C-1.732,-0.419 -1.512,-0.901 -1.078,-1.063C-0.644,-1.224 -0.162,-1.004 0,-0.57" style="fill:white;fill-rule:nonzero;"/>
                </g>
                <g transform="matrix(1,0,0,1,127.234,256.5)">
                    <path d="M0,-0.37C0.011,-0.342 0.019,-0.313 0.024,-0.285C0.075,-0.027 -0.067,0.236 -0.32,0.331C-0.574,0.425 -0.854,0.318 -0.984,0.09C-0.998,0.066 -1.011,0.039 -1.021,0.01C-1.126,-0.272 -0.983,-0.585 -0.701,-0.69C-0.419,-0.795 -0.105,-0.652 0,-0.37" style="fill:white;fill-rule:nonzero;"/>
                </g>
                <g transform="matrix(1,0,0,1,124.065,297.259)">
                    <path d="M0,-0.236C0,-0.236 20.276,11.581 31.102,-11.817L0,-0.236Z" style="fill:rgb(252,204,129);fill-rule:nonzero;"/>
                </g>
                <g transform="matrix(1,0,0,1,141.649,294.38)">
                    <path d="M0,-14.345L-3.346,-9.72L-4.903,-9.141L-10.511,-10.463C-11.269,-10.642 -11.919,-9.904 -11.648,-9.174L-8.318,-0.232C-8.044,0.505 -7.056,0.631 -6.606,-0.013L-3.429,-4.559L-1.546,-5.26L3.88,-3.887C4.642,-3.694 5.307,-4.435 5.033,-5.172L1.703,-14.114C1.432,-14.844 0.457,-14.976 0,-14.345" style="fill:rgb(211,48,71);fill-rule:nonzero;"/>
                </g>
                <g transform="matrix(4.52279,-1.68399,-1.68399,-4.52279,119.151,272.45)">
                    <path d="M0.5,0.261C0.224,0.261 0,0.065 0,-0.178C-0,-0.207 0.004,-0.234 0.009,-0.261C0.054,-0.058 0.256,0.096 0.5,0.096C0.744,0.096 0.946,-0.058 0.99,-0.261C0.996,-0.234 1,-0.207 1,-0.178C1,0.004 0.874,0.16 0.695,0.227C0.635,0.249 0.569,0.262 0.5,0.261Z" style="fill:url(#_Linear4);fill-rule:nonzero;"/>
                </g>
                <g transform="matrix(4.52279,-1.68399,-1.68399,-4.52279,137.767,265.204)">
                    <path d="M0.5,0.261C0.224,0.262 0,0.065 -0,-0.178C-0,-0.207 0.004,-0.235 0.01,-0.261C0.054,-0.058 0.256,0.096 0.5,0.096C0.744,0.095 0.946,-0.058 0.991,-0.262C0.996,-0.234 1,-0.207 1,-0.178C1,0.004 0.874,0.16 0.695,0.227C0.635,0.249 0.569,0.261 0.5,0.261Z" style="fill:url(#_Linear5);fill-rule:nonzero;"/>
                </g>
            </g>
        </g>
    </g>
    <defs>
        <linearGradient id="_Linear1" x1="0" y1="0" x2="1" y2="0" gradientUnits="userSpaceOnUse" gradientTransform="matrix(1,0,0,-1,0,-1.27459e-05)"><stop offset="0" style="stop-color:rgb(50,58,143);stop-opacity:1"/><stop offset="1" style="stop-color:rgb(29,78,157);stop-opacity:1"/></linearGradient>
        <linearGradient id="_Linear3" x1="0" y1="0" x2="1" y2="0" gradientUnits="userSpaceOnUse" gradientTransform="matrix(1,0,0,-1,0,0.000112378)"><stop offset="0" style="stop-color:rgb(160,212,208);stop-opacity:1"/><stop offset="1" style="stop-color:rgb(138,175,221);stop-opacity:1"/></linearGradient>
        <linearGradient id="_Linear4" x1="0" y1="0" x2="1" y2="0" gradientUnits="userSpaceOnUse" gradientTransform="matrix(1,0,0,-1,0,8.99704e-05)"><stop offset="0" style="stop-color:rgb(50,58,143);stop-opacity:1"/><stop offset="1" style="stop-color:rgb(29,78,157);stop-opacity:1"/></linearGradient>
        <linearGradient id="_Linear5" x1="0" y1="0" x2="1" y2="0" gradientUnits="userSpaceOnUse" gradientTransform="matrix(1,0,0,-1,0,0.000107066)"><stop offset="0" style="stop-color:rgb(50,58,143);stop-opacity:1"/><stop offset="1" style="stop-color:rgb(29,78,157);stop-opacity:1"/></linearGradient>
    </defs>
</svg>
