<?xml version="1.0" encoding="UTF-8" standalone="no"?><!DOCTYPE svg PUBLIC "-//W3C//DTD SVG 1.1//EN" "http://www.w3.org/Graphics/SVG/1.1/DTD/svg11.dtd"><svg width="100%" height="100%" viewBox="0 0 163 132" version="1.1" xmlns="http://www.w3.org/2000/svg" xmlns:xlink="http://www.w3.org/1999/xlink" xml:space="preserve" xmlns:serif="http://www.serif.com/" style="fill-rule:evenodd;clip-rule:evenodd;stroke-linejoin:round;stroke-miterlimit:2;"><g><g><path d="M123.939,23.449c-3.327,-2.99 -7.214,-5.379 -11.561,-7.018c-1.609,-0.612 -3.279,-1.116 -4.989,-1.485c-1.255,-0.291 -2.523,-0.493 -3.82,-0.652l0.012,-0.088c-1.272,-0.179 -2.55,-0.288 -3.84,-0.309c-1.748,-0.05 -3.49,0.037 -5.222,0.242c-1.754,0.212 -3.47,0.545 -5.144,0.993c-2.059,0.552 -4.826,1.489 -7.914,3.136c6.267,1.425 13.231,2.705 20.821,3.642c7.812,0.962 15.075,1.413 21.657,1.539" style="fill:#323a8f;fill-rule:nonzero;"/><path d="M60.219,49.766c-1.128,8.863 -2.279,17.745 -3.429,26.605c-1.605,12.591 -3.231,25.178 -4.858,37.764c-0.592,4.659 2.563,8.876 7.021,9.42l30.834,3.759l30.845,3.877c4.457,0.542 8.534,-2.792 9.08,-7.457c1.446,-12.63 2.898,-25.285 4.371,-37.938c1.01,-8.854 2.019,-17.684 3.052,-26.537c1.413,-12.097 -3.823,-21.756 -6.376,-27.779c-8.916,-0.016 -18.952,-0.523 -29.868,-1.888c-10.315,-1.29 -19.667,-3.129 -27.936,-5.161c-6.788,6.467 -11.454,15.382 -12.736,25.335Z" style="fill:url(#_Linear1);fill-rule:nonzero;"/><path d="M28.063,45.758c-0.928,-3.657 4.027,-5.822 6.291,-2.759c5.846,7.911 14.019,16.357 20.267,16.745l-3.283,30.463c-0,0 -16.234,-16.684 -23.275,-44.449" style="fill:#323a8f;fill-rule:nonzero;"/><path d="M162.026,114.362c-7.055,-27.763 -22.739,-44.379 -22.739,-44.379l-3.267,30.465c6.247,0.384 13.868,8.768 19.717,16.674c2.265,3.063 7.219,0.895 6.289,-2.76" style="fill:#323a8f;fill-rule:nonzero;"/><path d="M97.591,60.937c-3.48,-0.424 -6.093,-3.029 -6.038,-5.93l13.324,1.626c-0.643,2.829 -3.807,4.729 -7.286,4.304m29.097,-22.301l-50.687,-6.18c-3.411,-0.416 -6.486,1.909 -6.887,5.183l-3.491,28.632c-0.398,3.272 2.029,6.27 5.439,6.686l50.687,6.181c3.412,0.415 6.488,-1.91 6.888,-5.184l3.49,-28.632c0.398,-3.272 -2.027,-6.27 -5.439,-6.686" style="fill:#a0d4d0;fill-rule:nonzero;"/><path d="M71.066,72.95l-1.304,-0.159c-3.403,-0.416 -5.839,-3.409 -5.44,-6.686l3.489,-28.621c0.4,-3.276 3.485,-5.598 6.888,-5.18l1.304,0.157c-3.408,-0.416 -6.493,1.906 -6.893,5.181l-3.49,28.622c-0.4,3.275 2.036,6.27 5.446,6.686" style="fill:#fff;fill-rule:nonzero;"/><g opacity="0.9"><g><clipPath id="_clip2"><path d="M97.496,60.918c-3.489,-0.426 -6.111,-3.03 -6.058,-5.93l13.365,1.628c-0.647,2.831 -3.817,4.727 -7.307,4.302Zm29.175,-22.29l-50.837,-6.2c-3.421,-0.417 -6.505,1.908 -6.905,5.182l-3.49,28.63c-0.4,3.276 2.035,6.272 5.456,6.69l50.837,6.197c3.421,0.418 6.505,-1.906 6.906,-5.18l3.489,-28.631c0.401,-3.273 -2.035,-6.272 -5.456,-6.688Z" clip-rule="nonzero"/></clipPath><g clip-path="url(#_clip2)"><g opacity="0.51"><path d="M132.015,47.801l-64.505,-7.866l1.023,-8.389l64.504,7.866l-1.022,8.389Z" style="fill:#a0d4d0;"/><path d="M131.229,54.243l-64.504,-7.868l1.023,-8.388l64.505,7.867l-1.024,8.389Z" style="fill:#84b4c8;"/><path d="M130.444,60.685l-64.505,-7.866l1.023,-8.391l64.505,7.866l-1.023,8.391Z" style="fill:#6995bd;"/><path d="M129.659,67.125l-64.505,-7.866l1.023,-8.389l64.504,7.866l-1.022,8.389Z" style="fill:#5375ae;"/><path d="M128.873,73.567l-64.505,-7.866l1.023,-8.389l64.505,7.866l-1.023,8.389Z" style="fill:#40569f;"/><path d="M128.087,80.008l-64.505,-7.865l1.023,-8.389l64.505,7.866l-1.023,8.388Z" style="fill:#323a8f;"/></g></g></g></g><path d="M61.307,122.087c-0.083,0.618 -0.04,1.227 0.102,1.808l28.378,3.46l28.369,3.538c0.284,-0.526 0.473,-1.112 0.542,-1.737c1.411,-12.392 2.829,-24.786 4.241,-37.181l-56.828,-6.931c-1.601,12.348 -3.205,24.692 -4.804,37.043" style="fill:#89afdd;fill-rule:nonzero;"/><path d="M109.601,25.295c-0.052,0.423 -0.136,0.831 -0.252,1.225c-1.031,3.548 -4.509,5.927 -8.295,5.464c-3.787,-0.462 -6.592,-3.607 -6.74,-7.298c-0.019,-0.409 -0.002,-0.826 0.05,-1.249c0.512,-4.205 4.34,-7.2 8.547,-6.688c4.208,0.514 7.202,4.34 6.69,8.546" style="fill:#89afdd;fill-rule:nonzero;"/><path d="M97.591,60.937c3.479,0.425 6.643,-1.476 7.287,-4.304l-13.324,-1.626c-0.056,2.901 2.558,5.506 6.037,5.93Z" style="fill:url(#_Linear3);fill-rule:nonzero;"/><path d="M104.863,54.827l-13.108,-1.599c0.938,-2.486 3.872,-4.083 7.1,-3.688c3.232,0.393 5.694,2.648 6.008,5.287" style="fill:#fccc81;fill-rule:nonzero;"/><path d="M104.783,56.613c-0.645,2.831 -3.807,4.728 -7.286,4.304c-3.48,-0.425 -6.093,-3.028 -6.04,-5.929l13.326,1.625Z" style="fill:#fccc81;fill-rule:nonzero;"/><path d="M107.315,25.017c-0.036,0.295 -0.095,0.581 -0.176,0.857c-0.723,2.484 -3.157,4.149 -5.806,3.826c-2.652,-0.324 -4.615,-2.525 -4.718,-5.109c-0.012,-0.286 -0.002,-0.58 0.034,-0.875c0.359,-2.944 3.038,-5.04 5.984,-4.681c2.945,0.358 5.041,3.037 4.682,5.982" style="fill:#323a8f;fill-rule:nonzero;"/><path d="M105.628,24.812c-0.024,0.201 -0.066,0.396 -0.121,0.586c-0.493,1.697 -2.158,2.834 -3.969,2.613c-1.811,-0.219 -3.155,-1.725 -3.226,-3.491c-0.008,-0.195 0,-0.395 0.024,-0.599c0.245,-2.013 2.077,-3.444 4.09,-3.199c2.015,0.245 3.449,2.076 3.202,4.09" style="fill:#fccc81;fill-rule:nonzero;"/><path d="M102.468,23.348c-0.008,0.079 -0.025,0.157 -0.046,0.231c-0.195,0.667 -0.851,1.116 -1.563,1.028c-0.714,-0.086 -1.242,-0.678 -1.27,-1.373c-0.003,-0.078 0,-0.157 0.009,-0.237c0.097,-0.791 0.818,-1.355 1.611,-1.261c0.792,0.099 1.356,0.82 1.259,1.612" style="fill:#fff;fill-rule:nonzero;"/><path d="M103.398,24.918c-0.005,0.05 -0.017,0.101 -0.031,0.15c-0.126,0.434 -0.552,0.726 -1.016,0.669c-0.462,-0.057 -0.807,-0.442 -0.824,-0.894c-0.002,-0.05 -0,-0.103 0.005,-0.153c0.064,-0.516 0.533,-0.883 1.047,-0.818c0.516,0.062 0.883,0.53 0.819,1.046" style="fill:#fff;fill-rule:nonzero;"/><path d="M66.11,85.045c0,-0 21.685,34.184 56.829,6.931l-56.829,-6.931Z" style="fill:#fccc81;fill-rule:nonzero;"/><path d="M106.519,72.968l-8.794,4.43l-2.845,-0.347l-7.541,-6.472c-1.018,-0.876 -2.602,-0.26 -2.764,1.071l-1.992,16.34c-0.166,1.345 1.249,2.323 2.449,1.692l8.472,-4.442l3.44,0.419l7.224,6.409c1.012,0.9 2.62,0.291 2.784,-1.054l1.992,-16.34c0.163,-1.333 -1.226,-2.309 -2.425,-1.706" style="fill:#d33047;fill-rule:nonzero;"/><path d="M79.742,51.315c0.507,-0.245 1.777,-0.773 3.434,-0.587c1.741,0.197 2.898,1.066 3.328,1.425c0.3,-2.418 0.6,-4.835 0.899,-7.253c0.257,-2.064 -1.041,-3.978 -2.928,-4.206l-0.043,-0.005c-0.014,-0.002 -0.027,-0.004 -0.041,-0.005c-1.839,-0.188 -3.495,1.323 -3.745,3.329l-0.904,7.302Z" style="fill:#323a8f;fill-rule:nonzero;"/><path d="M110.131,55.081c0.507,-0.244 1.776,-0.771 3.434,-0.586c1.741,0.197 2.898,1.066 3.328,1.425c0.3,-2.417 0.6,-4.835 0.898,-7.254c0.257,-2.063 -1.04,-3.978 -2.927,-4.205l-0.043,-0.006c-0.014,-0.001 -0.028,-0.003 -0.041,-0.005c-1.839,-0.188 -3.497,1.323 -3.745,3.33l-0.904,7.301Z" style="fill:#323a8f;fill-rule:nonzero;"/><path d="M67.93,22.832l-16.664,-17.019l7.005,-5.813l9.659,22.832Z" style="fill:#fccc81;fill-rule:nonzero;"/><path d="M71.738,18.05l-3.823,-15.589l6.058,-0.968l-2.235,16.557Z" style="fill:#fccc81;fill-rule:nonzero;"/><path d="M63.587,25.275l-11.452,-8.472l-3.606,3.937l15.058,4.535Z" style="fill:#fccc81;fill-rule:nonzero;"/></g><g><path d="M24.737,43.701c-0,-0.187 -0.152,-0.339 -0.339,-0.339l-2.648,0c-0.187,0 -0.338,0.152 -0.338,0.339l-0,0.678c-0,0.187 0.151,0.339 0.338,0.339l2.648,-0c0.187,-0 0.339,-0.152 0.339,-0.339l-0,-0.678Z" style="fill:#ebebeb;"/><path d="M21.578,43.905l-0.99,-0.578l-0.075,0.109l0.991,0.578l0.074,-0.109Z" style="fill:#ebebeb;"/><path d="M24.677,43.899l0.991,-0.578l0.074,0.11l-0.991,0.577l-0.074,-0.109Z" style="fill:#ebebeb;"/><path d="M32.443,79.081l-27.521,-0c-2.707,-0 -4.922,-2.052 -4.922,-4.56l0,-56.031c0,-2.508 2.215,-4.559 4.922,-4.559l27.521,-0c2.707,-0 4.922,2.051 4.922,4.559l0,56.031c0,2.508 -2.215,4.56 -4.922,4.56Z" style="fill:#2b478b;fill-rule:nonzero;"/><path d="M35.513,18.921l0,54.733c0,1.857 -1.628,3.376 -3.617,3.376l-26.427,-0c-1.989,-0 -3.617,-1.519 -3.617,-3.376l0,-54.733c0,-1.857 1.628,-3.376 3.617,-3.376l26.427,0c1.989,0 3.617,1.519 3.617,3.376Z" style="fill:#c0d8fb;fill-rule:nonzero;"/><path d="M31.896,15.545l-26.1,61.485l-0.327,-0c-1.989,-0 -3.617,-1.519 -3.617,-3.376l0,-54.733c0,-1.857 1.628,-3.376 3.617,-3.376l26.427,0Z" style="fill:#cbe1fd;fill-rule:nonzero;"/><path d="M24.205,17.581l-11.045,-0c-0.899,-0 -1.635,-0.682 -1.635,-1.515l-0,-0.238c-0,-0.834 0.736,-1.516 1.635,-1.516l11.045,0c0.9,0 1.636,0.682 1.636,1.516l-0,0.238c-0,0.833 -0.736,1.515 -1.636,1.515Z" style="fill:#2b478b;fill-rule:nonzero;"/></g></g><defs><linearGradient id="_Linear1" x1="0" y1="0" x2="1" y2="0" gradientUnits="userSpaceOnUse" gradientTransform="matrix(-77.7939,-9.48614,9.48614,-77.7939,134.747,82.4393)"><stop offset="0" style="stop-color:#323a8f;stop-opacity:1"/><stop offset="1" style="stop-color:#1d4e9d;stop-opacity:1"/></linearGradient><linearGradient id="_Linear3" x1="0" y1="0" x2="1" y2="0" gradientUnits="userSpaceOnUse" gradientTransform="matrix(-0.623904,5.11651,-5.11651,-0.623904,98.2148,55.82)"><stop offset="0" style="stop-color:#a0d4d0;stop-opacity:1"/><stop offset="1" style="stop-color:#8aafdd;stop-opacity:1"/></linearGradient></defs></svg>