<svg xmlns="http://www.w3.org/2000/svg" viewBox="0 0 104.81 37.16"><defs><style>.cls-1{fill:#333;}</style></defs><title>Fichier 2</title><g id="Calque_2" data-name="Calque 2"><g id="Calque_1-2" data-name="Calque 1"><path class="cls-1" d="M18.57,1.35h0A3.71,3.71,0,0,1,22.07,4c2.37-.08,4.6-.26,6.69-.49a17.35,17.35,0,0,0-3.6-2.09A18.07,18.07,0,0,0,22.75.53,17.43,17.43,0,0,0,20.27.08,16.06,16.06,0,0,0,18.58,0a15.81,15.81,0,0,0-1.69.08,17.18,17.18,0,0,0-2.48.45A17.59,17.59,0,0,0,12,1.37,17.35,17.35,0,0,0,8.4,3.46c2.09.23,4.32.41,6.69.49A3.71,3.71,0,0,1,18.57,1.35Z"/><path class="cls-1" d="M12.86,18.16a1.83,1.83,0,0,0-1.65-2h0a1.82,1.82,0,0,0-1.59,1.94v3.79a2.85,2.85,0,0,1,3.28,0Z"/><path class="cls-1" d="M16.38,23.49a3.44,3.44,0,0,0,2.2.77,3.39,3.39,0,0,0,2.19-.77,2.76,2.76,0,0,0,1-1.88H15.34A2.84,2.84,0,0,0,16.38,23.49Z"/><path class="cls-1" d="M26,16.2h0a1.83,1.83,0,0,0-1.65,2v3.77a2.86,2.86,0,0,1,3.29,0V18.14A1.82,1.82,0,0,0,26,16.2Z"/><path class="cls-1" d="M21.76,20.76a3.18,3.18,0,0,0-3.18-2.32,3.18,3.18,0,0,0-3.18,2.32h6.36Z"/><path class="cls-1" d="M30.54,32.06h6.62c0-3.73-.06-7.46-.08-11.18A22.79,22.79,0,0,0,32.46,7.14c-3.38.43-7.13.75-11.17.86a3.6,3.6,0,0,1-2.7,1.25h0A3.64,3.64,0,0,1,15.86,8c-4-.11-7.78-.43-11.17-.86A22.78,22.78,0,0,0,.08,20.88Q0,26.46,0,32.06H6.61a3,3,0,0,1-3-3.08V14.13a3,3,0,0,1,3-3.08H30.54a3,3,0,0,1,3,3.08V29A3,3,0,0,1,30.54,32.06Z"/><path class="cls-1" d="M23.24,27.09l-4,2.84H17.9l-4-2.84a.81.81,0,0,0-1.26.72v8.48a.81.81,0,0,0,1.27.71l3.79-2.8h1.72L23.23,37a.8.8,0,0,0,1.26-.71V27.81A.8.8,0,0,0,23.24,27.09Z"/><path class="cls-1" d="M18.58,2.54A2.68,2.68,0,0,0,16,5.3a2.45,2.45,0,0,0,0,.46,2.57,2.57,0,0,0,5.12,0,3.67,3.67,0,0,0,0-.46A2.68,2.68,0,0,0,18.58,2.54Zm0,4.58a1.77,1.77,0,0,1-1.7-1.82,1.7,1.7,0,1,1,3.39,0A1.76,1.76,0,0,1,18.58,7.12Z"/><path class="cls-1" d="M44.67,32.06V0H56.32q5.13,0,8,2.08a7.06,7.06,0,0,1,2.84,6.06,7.59,7.59,0,0,1-1.19,4.32,7.72,7.72,0,0,1-3.4,2.74,8.67,8.67,0,0,1,4.31,3,8.08,8.08,0,0,1,1.51,5,7.71,7.71,0,0,1-3.06,6.59q-3.06,2.28-8.57,2.28ZM56.07,5.77H51.18v7.05h4.89a5.23,5.23,0,0,0,3.29-.91A3.09,3.09,0,0,0,60.53,9.3a3.11,3.11,0,0,0-1.17-2.62A5.23,5.23,0,0,0,56.07,5.77ZM51.18,26.29h5.31a6.19,6.19,0,0,0,3.89-1.08,3.72,3.72,0,0,0,1.38-3.11A3.65,3.65,0,0,0,60.38,19,6.25,6.25,0,0,0,56.49,18H51.18Z"/><path class="cls-1" d="M79.22,0V32.06H72.71V0Z"/><path class="cls-1" d="M104.81,32.06H84.74V0h6.51V26.29h13.56Z"/></g></g></svg>